<svg width="92px" height="92px" viewBox="0 0 92 92" version="1.1" xmlns="http://www.w3.org/2000/svg" xmlns:xlink="http://www.w3.org/1999/xlink">
<g id="Page-1" stroke="none" stroke-width="1" fill="none" fill-rule="evenodd">
    <g id="Error---104x104---light-copie-2" transform="translate(-6.000000, -6.000000)">
        <path d="M75,29 C64.0361014,18.006749 46.8328804,16.2906229 33.9133647,24.9013577 C20.993849,33.5120925 15.957308,50.0508094 21.8845403,64.4009507 C27.8117726,78.7510921 43.0515007,86.9148282 58.2817448,83.8984884 C73.5119889,80.8821485 84.4897298,67.5260599 84.5,52 C84.511197,43.3763848 81.0935527,35.1020882 75,29 Z M66.72,64.59 L64.6,66.71 L52,54.11 L39.4,66.7 L37.28,64.58 L49.88,52 L37.28,39.4 L39.4,37.27 L52,49.87 L64.6,37.27 L66.72,39.39 L54.12,52 L66.72,64.59 Z" id="Shape" fill="#E14A57" fill-rule="nonzero"></path>
        <path d="M50.46,6.5 L50.54,9 C51.34,9 52.15,9 52.95,9 L52.95,6.5 C52.16,6.47 51.3,6.47 50.46,6.5 Z M56.06,6.66 L55.84,9.15 C56.63,9.22 57.44,9.31 58.23,9.43 L58.59,7 C57.75,6.83 56.9,6.73 56.06,6.66 Z M47.41,6.66 C46.57,6.74 45.72,6.85 44.88,6.98 L45.27,9.45 C46.06,9.33 46.86,9.22 47.66,9.14 L47.41,6.66 Z M61.6,7.5 L61.07,9.94 C61.85,10.11 62.64,10.3 63.41,10.51 L64.07,8.1 C63.26,7.88 62.42,7.68 61.6,7.5 Z M41.88,7.61 C41.06,7.8 40.23,8.01 39.42,8.25 L40.11,10.65 C40.88,10.43 41.66,10.22 42.44,10.05 L41.88,7.61 Z M67,9 L66.17,11.36 C66.93,11.62 67.68,11.91 68.42,12.21 L69.42,9.91 C68.59,9.6 67.78,9.29 67,9 Z M36.52,9.17 C35.73,9.46 34.94,9.77 34.15,10.11 L35.15,12.4 C35.89,12.09 36.64,11.79 37.39,11.52 L36.52,9.17 Z M72.16,11.17 L71,13.43 C71.72,13.78 72.43,14.16 73.13,14.56 L74.36,12.38 C73.67,12 72.91,11.56 72.15,11.19 L72.16,11.17 Z M31.39,11.4 C30.64,11.79 29.89,12.2 29.15,12.62 L30.4,14.8 C31.09,14.4 31.8,14.01 32.51,13.65 L31.39,11.4 Z M77,14 L75.62,16.09 C76.2866667,16.53 76.9533333,16.99 77.62,17.47 L79.11,15.47 C78.42,14.94 77.71,14.44 77,14 Z M26.55,14.29 C25.85,14.76 25.15,15.29 24.48,15.77 L25.99,17.77 C26.63,17.29 27.29,16.82 27.99,16.37 L26.55,14.29 Z M81.48,17.36 L79.86,19.27 C80.47,19.78 81.07,20.32 81.65,20.87 L83.38,19 C82.77,18.46 82.13,17.89 81.49,17.34 L81.48,17.36 Z M22.11,17.7 C21.47,18.25 20.84,18.83 20.23,19.42 L22,21.2 C22.57,20.64 23.17,20.09 23.77,19.57 L22.11,17.7 Z M85.51,21.25 L83.67,22.94 C84.21,23.53 84.74,24.14 85.24,24.76 L87.18,23.17 C86.66,22.5 86.1,21.85 85.52,21.23 L85.51,21.25 Z M18.12,21.63 C17.55,22.26 17,22.91 16.47,23.57 L18.42,25.13 C18.92,24.51 19.42,23.89 19.98,23.3 L18.12,21.63 Z M89.03,25.63 L87,27 C87.46,27.65 87.91,28.32 88.34,29 L90.45,27.66 C90,27 89.53,26.27 89,25.58 L89.03,25.63 Z M14.65,26 C14.17,26.69 13.65,27.41 13.25,28.13 L15.38,29.44 C15.8,28.76 16.25,28.08 16.7,27.44 L14.65,26 Z M92,30.33 L89.8,31.52 C90.18,32.22 90.55,32.94 90.89,33.67 L93.15,32.6 C92.8,31.84 92.41,31.07 92,30.33 Z M11.73,30.78 C11.33,31.53 10.95,32.3 10.6,33.07 L12.88,34.07 C13.21,33.34 13.57,32.61 13.94,31.91 L11.73,30.78 Z M94.36,35.41 L92,36.32 C92.29,37.06 92.57,37.82 92.82,38.58 L95.19,37.8 C95,37 94.68,36.19 94.37,35.41 L94.36,35.41 Z M9.43,35.89 C9.13,36.68 8.84,37.49 8.59,38.3 L10.98,39.05 C11.22,38.29 11.48,37.52 11.76,36.77 L9.43,35.89 Z M96.08,40.73 L93.65,41.35 C93.85,42.12 94.03,42.91 94.18,43.7 L96.64,43.22 C96.48,42.39 96.29,41.55 96.09,40.73 L96.08,40.73 Z M7.77,41.24 C7.57,42.07 7.4,42.91 7.24,43.74 L9.7,44.19 C9.85,43.4 10.02,42.61 10.2,41.83 L7.77,41.24 Z M97.12,46.24 L94.64,46.56 C94.74,47.35 94.82,48.16 94.88,48.95 L97.37,48.78 C97.32,47.93 97.24,47.07 97.13,46.23 L97.12,46.24 Z M6.8,46.77 C6.7,47.61 6.63,48.46 6.58,49.31 L9.07,49.45 C9.12,48.65 9.19,47.85 9.28,47.06 L6.8,46.77 Z M95,51.83 L95,52 C95,52.8 95,53.61 94.93,54.41 L97.43,54.54 C97.43,53.7 97.5,52.85 97.5,51.99 L97.5,51.86 L95,51.83 Z M9,52.33 L6.5,52.33 C6.5,53.18 6.5,54.04 6.59,54.88 L9.09,54.72 C9.05,53.94 9,53.14 9,52.33 Z M94.66,57.25 C94.56,58.05 94.44,58.85 94.3,59.64 L96.76,60.08 C96.91,59.25 97.04,58.4 97.14,57.56 L94.66,57.25 Z M9.37,57.61 L6.89,57.94 C7,58.78 7.13,59.62 7.29,60.45 L9.76,60 C9.61,59.21 9.48,58.41 9.38,57.61 L9.37,57.61 Z M93.7,62.46 C93.51,63.23 93.29,64.01 93.05,64.78 L95.44,65.52 C95.69,64.71 95.92,63.89 96.13,63.07 L93.7,62.46 Z M10.39,62.81 L8,63.44 C8.21,64.25 8.45,65.08 8.71,65.88 L11.09,65.12 C10.81,64.36 10.59,63.58 10.39,62.81 Z M92.1,67.51 C91.81,68.25 91.5,69 91.17,69.73 L93.45,70.73 C93.79,69.95 94.13,69.16 94.45,68.38 L92.1,67.51 Z M12,67.84 L9.68,68.76 C9.99,69.54 10.33,70.33 10.68,71.09 L13,70 C12.64,69.32 12.32,68.57 12,67.84 Z M89.86,72.32 C89.48,73.02 89.08,73.72 88.66,74.41 L90.8,75.71 C91.24,74.98 91.66,74.24 92.06,73.5 L89.86,72.32 Z M14.25,72.62 L12.06,73.82 C12.46,74.56 12.89,75.3 13.34,76.01 L15.46,74.69 C15.07,74 14.66,73.32 14.28,72.62 L14.25,72.62 Z M87.08,76.82 C86.62,77.47 86.08,78.12 85.63,78.75 L87.63,80.3 C88.16,79.64 88.63,78.95 89.16,78.3 L87.08,76.82 Z M17.08,77.09 L15.08,78.55 C15.57,79.24 16.08,79.92 16.62,80.55 L18.56,79 C18.05,78.38 17.56,77.74 17.1,77.09 L17.08,77.09 Z M83.79,81 C83.34,81.5 82.87,82 82.4,82.47 L82.13,82.74 L83.88,84.52 L84.16,84.24 C84.67,83.73 85.16,83.24 85.65,82.68 L83.79,81 Z M20.45,81.24 L18.61,82.93 C19.18,83.55 19.78,84.17 20.39,84.76 L22.13,82.96 C21.55,82.35 21,81.77 20.45,81.19 L20.45,81.24 Z M80,84.64 C79.39,85.16 78.76,85.64 78.13,86.15 L79.65,88.15 C80.32,87.63 80.99,87.09 81.65,86.54 L80,84.64 Z M24.27,84.85 L22.65,86.76 C23.3,87.3 23.96,87.84 24.65,88.35 L26.16,86.35 C25.51,85.87 24.88,85.36 24.27,84.85 L24.27,84.85 Z M75.78,87.85 C75.11,88.29 74.43,88.72 73.78,89.13 L75,91.26 C75.73,90.83 76.46,90.38 77.16,89.91 L75.78,87.85 Z M28.51,88 L27.14,90.09 C27.85,90.55 28.58,91 29.31,91.43 L30.56,89.26 C29.87,88.88 29.18,88.46 28.51,88 Z M71.2,90.49 C70.49,90.84 69.75,91.19 69.02,91.49 L70.02,93.79 C70.8,93.45 71.57,93.09 72.33,92.71 L71.2,90.49 Z M33.11,90.64 L32,92.89 C32.76,93.26 33.54,93.62 34.32,93.95 L35.32,91.64 C34.57,91.33 33.83,91 33.11,90.64 Z M66.33,92.56 C65.58,92.83 64.81,93.07 64.04,93.3 L64.75,95.7 C65.55,95.46 66.37,95.2 67.17,94.91 L66.33,92.56 Z M38,92.68 L37.18,95 C37.99,95.28 38.8,95.53 39.61,95.76 L40.3,93.36 C39.53,93.18 38.76,92.94 38,92.68 Z M61.25,94 C60.47,94.18 59.67,94.33 58.89,94.45 L59.28,96.92 C60.12,96.79 60.96,96.63 61.79,96.44 L61.25,94 Z M43.1,94.08 L42.58,96.53 C43.41,96.7 44.25,96.85 45.09,96.98 L45.46,94.51 C44.68,94.4 43.88,94.26 43.1,94.09 L43.1,94.08 Z M56,94.83 C55.21,94.9 54.4,94.96 53.6,94.99 L53.7,97.48 C54.54,97.48 55.4,97.4 56.24,97.32 L56,94.83 Z M48.31,94.83 L48.1,97.32 C48.94,97.39 49.8,97.44 50.64,97.47 L50.71,94.97 C49.94,95 49.13,94.93 48.33,94.86 L48.31,94.83 Z" id="Shape" fill="#E14A57" fill-rule="nonzero"></path>
        <rect id="Rectangle" x="0" y="0" width="104" height="104"></rect>
    </g>
</g>
</svg>
